<?xml version="1.0" encoding="UTF-8" standalone="no"?>
<svg id="svg2" xmlns:rdf="http://www.w3.org/1999/02/22-rdf-syntax-ns#" xmlns="http://www.w3.org/2000/svg" xml:space="preserve" height="245.67" width="302.36" version="1.1" xmlns:cc="http://creativecommons.org/ns#" viewBox="0 0 302.35999 245.66667" xmlns:dc="http://purl.org/dc/elements/1.1/"><metadata id="metadata8"><rdf:RDF><cc:Work rdf:about=""><dc:format>image/svg+xml</dc:format><dc:type rdf:resource="http://purl.org/dc/dcmitype/StillImage"/></cc:Work></rdf:RDF></metadata><g id="g10" transform="matrix(1.3333 0 0 -1.3333 0 245.67)"><g id="g12" transform="scale(.1)"><path id="path14" d="m0 911.42h25.391l11.785-106.89 1.324-24.96h2.5703l2.457 28.059 18.836 103.79h21.195l18.027-103.79 2.035-28.059h2.664l1.238 24.961 10.747 106.89h25.503l-24.46-176.89h-26.937l-14.434 85.02-4.5078 36.969h-2.05l-4.402-36.97-15.153-85.02h-26.621l-25.195 176.89" fill="#181817"/><path id="path16" d="m209.3 818.51c0.074 0.758 0.14 1.777 0.207 3.066 0.07 1.25 0.121 2.602 0.16 3.961 0.035 1.391 0.055 2.762 0.055 4.102v3.48c0 9.379-1.102 16.152-3.282 20.293-2.179 4.141-5.421 6.211-9.73 6.211-2.254 0-4.231-0.527-5.945-1.602-1.7-1.074-3.094-2.871-4.188-5.39-1.094-2.52-1.91-5.84-2.457-9.981-0.547-4.164-0.82-9.3-0.82-15.453v-8.687zm-14.328-85.551c-6.082 0-11.453 1.141-16.125 3.418-4.684 2.293-8.621 5.82-11.836 10.672-3.203 4.84-5.625 11.027-7.27 18.59-1.637 7.558-2.453 16.66-2.453 27.3v26.918c0 9.039 0.66 16.801 1.992 23.243 1.34 6.464 3.078 11.875 5.227 16.269 2.148 4.375 4.64 7.852 7.48 10.41 2.825 2.559 5.746 4.512 8.754 5.86 2.992 1.347 5.988 2.207 8.949 2.578 2.981 0.39 5.731 0.566 8.247 0.566 4.64 0 9.113-0.703 13.417-2.109 4.293-1.426 8.086-3.848 11.364-7.246 3.281-3.418 5.894-8.008 7.844-13.731 1.937-5.742 2.91-12.89 2.91-21.449 0-2.91-0.082-5.84-0.254-8.809-0.168-2.961-0.399-5.871-0.668-8.75-0.27-2.871-0.633-5.64-1.071-8.32-0.449-2.691-0.91-5.191-1.382-7.461h-46.797v-14.512c0-6.207 0.234-11.437 0.707-15.699 0.484-4.219 1.289-7.66 2.418-10.238 1.133-2.59 2.66-4.449 4.605-5.602 1.949-1.129 4.391-1.718 7.324-1.718 1.571 0 3.106 0.347 4.606 1 1.508 0.66 2.816 1.75 3.937 3.257 1.129 1.524 2.032 3.532 2.711 6.051 0.684 2.539 1.036 5.672 1.036 9.403v4.429h21.601v-5.492c0-13.508-3.199-23.379-9.582-29.57-6.375-6.168-15.613-9.258-27.691-9.258" fill="#181817"/><path id="path18" d="m257.03 911.42h34.614l16.781-68.477c1.789-7.593 3.187-14.824 4.207-21.695 1.027-6.859 2.016-13.34 2.969-19.422h0.812c0.961 6.082 1.953 12.563 2.981 19.422 1.019 6.871 2.422 14.102 4.199 21.695l17.293 68.477h33.898v-176.89h-24.78v58.489c0 8.992 0.094 17.621 0.266 25.902 0.168 8.277 0.386 15.898 0.664 22.848 0.269 6.937 0.574 13.05 0.922 18.382 0.332 5.313 0.644 9.512 0.914 12.637h-1.95l-26.42-115.49h-16.797l-26.613 115.49h-1.945c0.266-3.125 0.57-7.324 0.918-12.637 0.344-5.332 0.64-11.445 0.914-18.382 0.277-6.95 0.5-14.571 0.668-22.848 0.183-8.281 0.254-16.91 0.254-25.902v-58.489h-24.774v176.89" fill="#3ea0b4"/><path id="path20" d="m438.79 753.14c2.316 0 4.277 0.621 5.875 1.839 1.617 1.192 2.91 3.18 3.902 5.95 0.985 2.761 1.703 6.41 2.145 10.922 0.445 4.527 0.664 10.136 0.664 16.839v35.11c0 6.679-0.219 12.308-0.664 16.879-0.442 4.55-1.16 8.222-2.145 11.035-0.992 2.793-2.285 4.805-3.902 6.055-1.598 1.23-3.559 1.855-5.875 1.855-2.465 0-4.52-0.625-6.199-1.855-1.676-1.25-3.059-3.262-4.16-6.055-1.086-2.813-1.868-6.485-2.348-11.035-0.481-4.571-0.715-10.2-0.715-16.879v-35.11c0-6.703 0.234-12.312 0.715-16.839 0.48-4.512 1.262-8.161 2.348-10.922 1.101-2.77 2.484-4.758 4.16-5.95 1.679-1.218 3.734-1.839 6.199-1.839zm-0.203-20.18c-3.02 0-6.067 0.258-9.176 0.73-3.101 0.489-6.101 1.481-9.016 3-2.894 1.508-5.625 3.7-8.187 6.528-2.559 2.832-4.801 6.543-6.703 11.191-1.914 4.61-3.414 10.309-4.508 17.09-1.094 6.762-1.641 14.82-1.641 24.238v22.364c0 9.238 0.559 17.168 1.688 23.769 1.133 6.582 2.668 12.129 4.617 16.621 1.938 4.492 4.215 8.067 6.813 10.723 2.597 2.656 5.336 4.707 8.238 6.113s5.887 2.344 8.957 2.793c3.066 0.449 6.07 0.664 9.019 0.664 2.789 0 5.696-0.195 8.696-0.625 3.008-0.41 5.941-1.289 8.804-2.637 2.864-1.328 5.586-3.339 8.141-5.996 2.559-2.675 4.816-6.23 6.758-10.722 1.953-4.492 3.484-10.059 4.609-16.735 1.125-6.66 1.688-14.648 1.688-23.968v-22.364c0-9.258-0.574-17.25-1.739-23.949-1.152-6.699-2.726-12.359-4.707-16.969-1.98-4.629-4.265-8.379-6.863-11.25-2.59-2.871-5.324-5.082-8.187-6.679-2.871-1.582-5.793-2.641-8.762-3.141-2.969-0.512-5.816-0.789-8.539-0.789" fill="#3ea0b4"/><path id="path22" d="m488.65 877.14h25.805l13.613-75.825 3.383-30.351h0.828l3.891 30.351 13.516 75.825h24.984l-32.16-142.61h-22.122l-31.746 142.61" fill="#3ea0b4"/><path id="path24" d="m638.15 818.51c0.075 0.758 0.141 1.777 0.207 3.066 0.071 1.25 0.118 2.602 0.164 3.961 0.024 1.391 0.04 2.762 0.04 4.102v3.48c0 9.379-1.09 16.152-3.274 20.293-2.187 4.141-5.426 6.211-9.723 6.211-2.253 0-4.242-0.527-5.941-1.602-1.711-1.074-3.098-2.871-4.199-5.39-1.09-2.52-1.91-5.84-2.457-9.981-0.543-4.164-0.821-9.3-0.821-15.453v-8.687zm-14.328-85.551c-6.082 0-11.453 1.141-16.129 3.418-4.683 2.293-8.617 5.82-11.828 10.672-3.207 4.84-5.629 11.027-7.269 18.59-1.645 7.558-2.453 16.66-2.453 27.3v26.918c0 9.039 0.664 16.801 1.992 23.243 1.332 6.464 3.074 11.875 5.218 16.269 2.157 4.375 4.641 7.852 7.473 10.41 2.84 2.559 5.754 4.512 8.75 5.86 3.02 1.347 6.008 2.207 8.973 2.578 2.972 0.39 5.722 0.566 8.23 0.566 4.66 0 9.125-0.703 13.422-2.109 4.305-1.426 8.094-3.848 11.363-7.246 3.289-3.418 5.895-8.008 7.836-13.731 1.95-5.742 2.918-12.89 2.918-21.449 0-2.91-0.086-5.84-0.254-8.809-0.168-2.961-0.394-5.871-0.664-8.75-0.265-2.871-0.636-5.64-1.07-8.32-0.453-2.691-0.906-5.191-1.383-7.461h-46.801v-14.512c0-6.207 0.239-11.437 0.723-15.699 0.481-4.219 1.27-7.66 2.402-10.238 1.133-2.59 2.661-4.449 4.606-5.602 1.937-1.129 4.394-1.718 7.324-1.718 1.567 0 3.102 0.347 4.606 1 1.504 0.66 2.816 1.75 3.949 3.257 1.121 1.524 2.031 3.532 2.703 6.051 0.687 2.539 1.031 5.672 1.031 9.403v4.429h21.602v-5.492c0-13.508-3.196-23.379-9.574-29.57-6.383-6.168-15.614-9.258-27.696-9.258" fill="#3ea0b4"/><path id="path26" d="m680.25 753.04c0 7.332 1.426 12.582 4.293 15.742 2.875 3.188 6.766 4.77 11.68 4.77 5.109 0 9.074-1.68 11.875-5.063 2.8-3.398 4.203-8.527 4.203-15.449 0-6.348-1.426-11.25-4.254-14.738-2.832-3.5-6.813-5.242-11.926-5.242-4.848 0-8.703 1.679-11.578 5.082-2.867 3.379-4.293 8.359-4.293 14.898" fill="#181817"/><path id="path28" d="m737.18 911.42h64.812v-21.133h-38.285v-52.93h29.59v-21.13h-29.59v-60.589h39.316v-21.11h-65.84v176.89" fill="#181817"/><path id="path30" d="m821.56 911.42h26.71v-129.69c0-5.5 0.289-10.109 0.832-13.769 0.546-3.652 1.421-6.582 2.613-8.75 1.195-2.16 2.726-3.731 4.601-4.641 1.883-0.941 4.122-1.429 6.711-1.429 2.594 0 4.864 0.488 6.813 1.429 1.937 0.91 3.551 2.481 4.805 4.641 1.273 2.168 2.234 5.098 2.878 8.75 0.641 3.66 0.969 8.269 0.969 13.769v129.69h26.414v-122.54c0-8.629-0.672-16.008-2.039-22.168-1.367-6.133-3.176-11.27-5.441-15.43-2.246-4.121-4.824-7.422-7.723-9.82-2.902-2.422-5.898-4.281-9.015-5.551-3.094-1.269-6.18-2.09-9.266-2.441-3.067-0.328-5.863-0.508-8.395-0.508-2.531 0-5.3 0.18-8.343 0.508-3.043 0.351-6.086 1.172-9.164 2.441-3.071 1.27-6.047 3.129-8.915 5.551-2.867 2.398-5.429 5.699-7.679 9.82-2.254 4.16-4.047 9.278-5.371 15.399-1.332 6.109-1.992 13.511-1.992 22.199v122.54" fill="#181817"/><path id="path32" d="m1805.8 1265.3s-29.81-0.28-52.23 19.78c-10.78-3.42-22.44-5.81-34.8-6.7-23.21-1.62-44.87 2.18-62.54 9.8-20.98-12.71-34.42-31.01-35.08-51.75-0.7-23.28 14.69-44.48 39.18-58.92-3.99-11.7-11.35-24.73-25.47-35.97 0 0 32.17 0.93 55.59 23.47 1.25-0.35 2.57-0.63 3.86-0.94-0.06 0.89-0.19 1.77-0.19 2.69 0 26.43 29.8 47.9 66.6 47.9 25.8 0 48.1-10.58 59.18-26.02 12.22 11.39 19.61 25.36 20.12 40.63 0.89 28.91-23.15 54.67-58.83 67.89 4.14-10.56 11.35-22.12 24.61-31.86" fill="#e96e18"/><path id="path34" d="m1760.7 1214.7c-36.8 0-66.6-21.47-66.6-47.9 0-0.92 0.13-1.8 0.19-2.69 1.12-14.07 10.51-26.47 24.77-34.82-2.21-7.7-6.43-16.31-14.79-23.94 0 0 19.53 1.3 33.32 16.46 7.19-1.85 14.96-2.95 23.11-2.95 36.76 0 66.58 21.48 66.58 47.94 0 7.89-2.71 15.33-7.4 21.88-11.08 15.44-33.38 26.02-59.18 26.02" fill="#e4ea1d"/><path id="path36" d="m1656.2 1288.2c17.67-7.62 39.33-11.42 62.54-9.8 12.36 0.89 24.02 3.28 34.8 6.7 22.42-20.06 52.23-19.78 52.23-19.78-13.26 9.74-20.47 21.3-24.61 31.86-0.08 0.18-0.16 0.35-0.22 0.53 22.19 14.22 35.71 34.38 34.24 55.9-0.96 13.8-7.99 26.19-19.26 36.17-10.74-1.76-22.18-2.52-34.04-1.76-27.64 1.79-52.17 10.91-69.61 24.2-47.3-8.85-81.72-39.29-79.37-72.91 1.5-21.97 18.41-40.35 43.3-51.11" fill="#7fcc2a"/><path id="path38" d="m1700 149.82c6.76 5.68 10.16 12.149 11.96 17.91-0.63 0.329-1.17 0.719-1.76 1.071-1.5 0.078-3.01 0.16-4.55 0.16-27.25 0-49.36-14.941-49.36-33.34 0-18.422 22.11-33.34 49.36-33.34 6.03 0 11.8 0.778 17.13 2.071 10.21-10.571 24.69-11.461 24.69-11.461-6.22 5.3086-9.32 11.289-10.96 16.64 11.25 6.188 18.51 15.539 18.51 26.09 0 9.707-6.19 18.418-16.01 24.508-4.24 0.371-8.32 0.961-12.19 1.902-11.13-11.332-26.82-12.211-26.82-12.211" fill="#8b198d"/><path id="path40" d="m1707 220.7c-9.18-6.41-14.87-15.097-14.91-24.73-0.05-10.797 7.04-20.469 18.13-27.168 0.59-0.352 1.13-0.742 1.76-1.071-1.8-5.761-5.2-12.23-11.96-17.91 0 0 15.69 0.879 26.82 12.211 3.87-0.941 7.95-1.531 12.19-1.902 2.11-0.168 4.18-0.41 6.37-0.41 29.53-0.149 53.57 15.84 53.67 35.711 0.06 12.34-9.14 23.261-23.17 29.82-12.71-4.59-27.26-7.211-42.69-7.211-9.16 0-17.89 1-26.21 2.66" fill="#e4ea1d"/><path id="path42" d="m1652.6 285.97c-3.18 0-6.31 0.179-9.35 0.41-0.45-2.399-0.73-4.82-0.73-7.301 0-19.277 13.32-36.449 33.97-47.738-2.97-9.801-8.71-20.758-20.14-30.469 0 0 26.62 1.641 45.41 20.938 1.72-0.411 3.5-0.758 5.26-1.11 8.32-1.66 17.05-2.66 26.21-2.66 15.43 0 29.98 2.621 42.69 7.211 8.56 3.07 16.25 7.07 22.89 11.762-13.96 7.258-22.81 18.808-22.01 31.207 1.04 16.461 18.65 29.222 41.58 31.722-12.28 22.61-43.84 38.957-81.3 40.02-2.35-30.082-39.24-53.992-84.48-53.992" fill="#e96e18"/><path id="path44" d="m1629.1 366.81c2.03-8.379 6.38-17.868 15.5-26.539 0 0-22.24 2.64-37.1 19.71-8.34-1.531-17.29-2.21-26.57-1.699-3.22 0.168-6.4 0.52-9.51 0.969-2.26-5.172-3.55-10.621-3.55-16.289 0-18 12.46-34.02 31.75-44.57-2.79-9.141-8.16-19.391-18.8-28.45 0 0 24.82 1.539 42.36 19.547 6.37-1.527 13.08-2.578 20.06-3.109 3.04-0.231 6.17-0.41 9.35-0.41 45.24 0 82.13 23.91 84.48 53.992 0.07 0.988 0.21 1.988 0.21 3 0 29.98-34.51 54.539-78.26 56.758-2.99-13.789-14.14-25.43-29.92-32.91" fill="#3ea0b4"/><path id="path46" d="m1608.6 402.65s-32.31 1.801-55.2 25.122c-11.93-2.911-24.72-4.688-38.18-4.77-1.91 0-3.75 0.121-5.64 0.18-1.06-3.071-1.74-6.231-1.92-9.489-1.42-26.082 26.47-49.179 63.77-54.441 3.11-0.449 6.29-0.801 9.51-0.969 9.28-0.511 18.23 0.168 26.57 1.699 14.86-17.07 37.1-19.71 37.1-19.71-9.12 8.671-13.47 18.16-15.5 26.539 15.78 7.48 26.93 19.121 29.92 32.91 0.39 1.801 0.68 3.621 0.78 5.492 1.23 23.301-20.88 44.238-52.27 52.187-6.4-6.777-14.37-12.808-23.55-17.91 3.67-11.859 10.7-25.156 24.61-36.84" fill="#7fcc2a"/><path id="path48" d="m1450 468.84c3.21-12.129 7.95-24.961 14.91-37.871 13.49-4.59 28.59-7.321 44.61-7.789 1.89-0.059 3.73-0.18 5.64-0.18 13.46 0.082 26.25 1.859 38.18 4.77 22.89-23.321 55.2-25.122 55.2-25.122-13.91 11.684-20.94 24.981-24.61 36.84 9.18 5.102 17.15 11.133 23.55 17.91 11.06 11.622 17.45 25.411 17.39 40.211-0.1 21.063-13.28 39.942-34.36 53.321-20.55 0.121-40.14 3.07-57.89 8.281-12.03-36.711-41.87-68.32-82.62-90.371" fill="#ca1e25"/><path id="path50" d="m1019.3 301.66c-55.678 0-101.68 27.461-110.11 63.301-26.211-8.992-55.852-14.16-87.281-14.34-23.731-0.101-46.317 2.75-67.325 7.641-22.789-23.461-51.062-34.731-71.172-40.102-2.089-6.781-3.226-13.711-3.226-20.84-0.016-63.32 86.34-114.69 192.84-114.63 23.574 0 46.012 2.661 66.883 7.11 39.945-36.289 96.526-39.34 96.526-39.34-24.26 18.211-36.476 38.871-42.847 57.289 43.947 21.25 72.277 53.5 72.297 89.75 0 0.641-0.06 1.262-0.08 1.891-2.66 2.07-5.28 4.359-7.79 6.929-12.08-2.91-25.08-4.66-38.71-4.66" fill="#e4ea1d"/><path id="path52" d="m1277.6 1047.8s-19.49 1.2-33.24 15.34c-7.19-1.74-14.92-2.77-23.05-2.77-27.03 0-50.25 10.89-60.62 26.51-66.22-3.96-118.09-41.35-118.09-86.85 0-27.59 19.07-52.094 48.61-68.238-4.27-14.004-12.51-29.715-28.81-43.582 0 0 38.04 2.363 64.9 29.941 14.05-3.363 29.15-5.379 45.01-5.379 71.62 0 129.69 39.09 129.69 87.258 0 22.7-12.93 43.38-34.08 58.9 2.36-3.8 5.5-7.59 9.68-11.13" fill="#e96e18"/><path id="path54" d="m1532.7 559.21c-52.23 15.34-88.81 50.301-89 91.117-0.1 18.223 7.09 35.313 19.66 50.082-15.91-4.18-32.79-7.211-50.5-8.48-51.96-3.649-99.75 7.441-134.26 28.101-21.62-20.152-56.11-33.203-95.02-33-14.43 0.071-28.18 2.071-40.96 5.289-12.49-13.16-27.54-20.16-39.36-23.871-13.04-19.668-20.6-41.558-21.14-64.801-0.29-12.269 1.45-24.238 4.86-35.796 45.18-6.391 79.14-33.364 79.14-65.633 0-6.93-1.58-13.649-4.47-19.957 0.58 0.039 1.15 0.078 1.75 0.097 36.18 0.532 67.02-15 77.68-36.839 20.7-4.918 42.68-7.848 65.51-8.399 27.89-0.641 54.57 2.449 79.37 8.051 46.1-52.09 112.93-57.992 112.93-57.992-15 14.05-25.92 28.968-33.9 43.789-6.96 12.91-11.7 25.742-14.91 37.871 40.75 22.051 70.59 53.66 82.62 90.371" fill="#2e358b"/><path id="path56" d="m821.94 350.62c31.429 0.18 61.07 5.348 87.281 14.34-0.906 3.859-1.508 7.769-1.508 11.789 0 37.48 40.926 68.461 94.369 74.07-21.646 12.418-35.502 30.782-35.502 51.399 0 16.211 8.543 31.062 22.781 42.679-33.605 38.75-96.601 64.723-168.7 64.372-107.19-0.56-193.66-58.92-193.31-130.27 0.215-40.918 28.89-77.07 73.187-100.78-6.301-20.821-18.508-44.16-42.754-64.809 0 0 10.524 0.692 25.66 4.75 20.11 5.371 48.383 16.641 71.172 40.102 21.008-4.891 43.594-7.742 67.325-7.641" fill="#3ea0b4"/><path id="path58" d="m1083.2 426.73c-0.04 3.27 0.42 6.43 1.19 9.52-5.86-0.711-11.87-1.141-18.04-1.141-12.21 0-23.81 1.551-34.62 4.141-20.65-21.23-49.911-23.059-49.911-23.059 12.543 10.661 18.881 22.77 22.161 33.508-0.66 0.371-1.26 0.742-1.89 1.121-53.443-5.609-94.369-36.59-94.369-74.07 0-4.02 0.602-7.93 1.508-11.789 8.426-35.84 54.433-63.301 110.11-63.301 13.63 0 26.63 1.75 38.71 4.66 2.51-2.57 5.13-4.859 7.79-6.929 22.03-17.192 48.07-18.871 48.07-18.871-14.05 11.941-21.13 25.449-24.8 37.519 25.44 13.871 41.84 34.981 41.84 58.711 0 0.449-0.09 0.879-0.11 1.332-27.8 8.238-47.31 26.777-47.64 48.648" fill="#e96e18"/><path id="path60" d="m1302.1 768.88c-0.09-18.359-8.9-35.207-23.51-48.848 34.51-20.66 82.3-31.75 134.26-28.101 17.71 1.269 34.59 4.3 50.5 8.48 19.11 22.5 50.71 39.57 88.44 46.891 5.77 1.051 11.38 1.129 16.7 2.578-25.84 27.223-48.22 66.812-48.22 101.52 0 16.875 3.63 33.164 10.25 48.614-0.15 0.078-0.29 0.175-0.45 0.254-9.23 3.203-17.57 7.324-24.8 12.148-1.17 0.453-2.36 0.91-3.56 1.344-13.32-11.598-34.33-19.117-58.02-19.117-8.93 0-17.44 1.113-25.34 2.968-15.09-15.293-36.5-16.601-36.5-16.601 9.16 7.695 13.79 16.386 16.21 24.16-9.94 5.351-17.71 12.367-22.4 20.402-65.51-9.656-118.61-41.73-140.59-82.023 39.73-13.461 67.19-41.86 67.03-74.672" fill="#80cc29"/><path id="path62" d="m923.69 1070.4c-2.86-9.51-8.395-20.16-19.407-29.6 0 0 25.754 1.68 43.883 20.44 9.527-2.23 19.762-3.56 30.496-3.53 48.5 0.19 87.75 26.78 87.62 59.43-0.04 11.02-4.63 21.28-12.47 30.08-4.59-0.92-9.41-1.42-14.43-1.42-6.23 0-12.14 0.79-17.66 2.11-10.54-10.83-25.47-11.75-25.47-11.75 6.39 5.44 9.63 11.61 11.3 17.1-9.913 5.43-16.788 13.27-18.57 22.18-3.527 0.3-7.105 0.47-10.753 0.46-48.559-0.18-87.739-26.79-87.629-59.41 0.07-18.68 13.023-35.24 33.09-46.09" fill="#8b198d"/><path id="path64" d="m1398 905.17c-2.42-7.774-7.05-16.465-16.21-24.16 0 0 21.41 1.308 36.5 16.601 7.9-1.855 16.41-2.968 25.34-2.968 23.69 0 44.7 7.519 58.02 19.117 0.24 0.215 0.49 0.437 0.75 0.652-16.06 11.617-25.9 26.906-25.9 43.699 0 8.879 2.75 17.321 7.67 25.032-11.6 5.156-25.54 8.16-40.54 8.16-40.34 0-72.99-21.653-72.99-48.317 0-6.152 1.8-12.008 4.96-17.414 4.69-8.035 12.46-15.051 22.4-20.402" fill="#e4ea1d"/><path id="path66" d="m1880 587.85c-27.71 15.347-45.56 38.507-45.41 64.488 0.04 9.879 2.82 19.301 7.62 28.07-0.49 0.27-1.01 0.539-1.52 0.801-19.36-3.109-39.55-4.789-60.33-4.789-15.26 0-30.14 0.937-44.63 2.656 3.67-8.648 5.7-17.777 5.74-27.226 0.15-31.68-21.56-59.922-55.37-78.653 4.94-16.058 14.45-34.058 33.28-49.847 0 0-43.69 2.449-74.71 33.988-6.89-1.699-14.1-3.031-21.44-4.102 25.52-29.359 72.89-49.117 127.11-49.117 17.98 0 35.11 2.277 51.05 6.129 30.45-31.352 73.63-34 73.63-34-18.51 15.719-27.85 33.551-32.67 49.469 13.51 7.363 25.06 16.293 34.04 26.371-13.42-4.5-23.69-5.102-23.69-5.102 15.41 12.953 23.24 27.692 27.3 40.864" fill="#e96e18"/><path id="path68" d="m1970.4 149.02c-20.9-21.25-50.34-22.891-50.34-22.891 8.89 7.441 14.65 15.621 18.5 23.59-12.75-9.41-20.76-21.828-21.54-35.84-1.76-32.379 35.86-60.797 84-63.488 10.65-0.5898 20.9 0.1914 30.45 1.9492 17.05-19.57 42.52-22.602 42.52-22.602-10.45 9.9414-15.43 20.82-17.75 30.434 20.43 9.6875 34.12 25.469 35.15 44.008 1.08 19.8-12.61 38.121-34.43 49.98-15.14-6.078-32.79-9.57-51.74-9.48-12.26 0.058-23.94 1.679-34.82 4.34" fill="#7fcc2a"/><path id="path70" d="m2163.1 1491.2s-31.64 0.07-55.21 21.6c-11.47-3.48-23.89-5.88-37.02-6.67-37.24-2.21-70.8 8.58-91.23 26.79-44.27-16.68-74.18-48.59-74-85.04 0.16-30.59 21.41-57.63 54.22-75.35-4.63-15.56-13.69-33-31.66-48.44 0 0 42.15 2.79 71.74 33.52 15.58-3.65 32.32-5.78 49.88-5.7 79.34 0.4 143.48 44.06 143.22 97.44-0.17 30.89-21.91 58.27-55.6 75.81 4.27-11.21 11.79-23.51 25.66-33.96" fill="#ca1e25"/><path id="path72" d="m2015 1629.2c-17.7-18.19-42.78-19.75-42.78-19.75 4.34 3.7 7.78 7.59 10.57 11.51-15.67-13.66-24.69-30.77-23.62-48.9 0.86-14.86 8.36-28.28 20.47-39.1 20.43-18.21 53.99-29 91.23-26.79 13.13 0.79 25.55 3.19 37.02 6.67 23.57-21.53 55.21-21.6 55.21-21.6-13.87 10.45-21.39 22.75-25.66 33.96-0.1 0.24-0.2 0.49-0.28 0.74 23.67 14.85 38.28 36.08 36.98 58.95-1.68 28.51-27.76 51.65-64.13 61.29-15.68-12.54-39.12-20.53-65.39-20.53-10.46 0-20.39 1.33-29.62 3.55" fill="#7fcc2a"/><path id="path74" d="m1795.9 1389.8c0.41 0.07 0.84 0.12 1.21 0.18 19.52-22.81 48.99-26.58 48.99-26.58-11.99 11.6-17.64 24.25-20.24 35.35 23.77 11.07 39.81 29.15 41.16 50.63 0.93 14.75-5.3 28.82-16.51 40.73-12.6-5.22-27.4-8.29-43.26-8.29-10.14 0-19.76 1.29-28.71 3.43-17.13-17.59-41.39-19.08-41.39-19.08 10.39 8.83 15.65 18.85 18.38 27.79-12.46 6.79-21.85 15.93-26.89 26.4-35.71-8.38-61.57-30.43-63.32-57.91-1.21-18.88 9.22-36.7 26.93-50.21 17.44-13.29 41.97-22.41 69.61-24.2 11.86-0.76 23.3 0 34.04 1.76" fill="#2e358b"/><path id="path76" d="m1007.6 1153.2c-1.67-5.49-4.91-11.66-11.3-17.1 0 0 14.93 0.92 25.47 11.75 5.52-1.32 11.43-2.11 17.66-2.11 5.02 0 9.84 0.5 14.43 1.42 21.07 4.18 36.47 17.29 36.47 32.82 0 18.91-22.79 34.23-50.9 34.23s-50.9-15.32-50.9-34.23c0-1.55 0.196-3.09 0.5-4.6 1.782-8.91 8.657-16.75 18.57-22.18" fill="#3ea0b4"/><path id="path78" d="m966.58 502.22c0-20.617 13.856-38.981 35.502-51.399 0.63-0.379 1.23-0.75 1.89-1.121-3.28-10.738-9.618-22.847-22.161-33.508 0 0 29.261 1.829 49.911 23.059 10.81-2.59 22.41-4.141 34.62-4.141 6.17 0 12.18 0.43 18.04 1.141 6.24 25.23 38.16 44.859 77.24 46.012 2.89 6.308 4.47 13.027 4.47 19.957 0 32.269-33.96 59.242-79.14 65.633-6.65 0.929-13.55 1.437-20.61 1.437-31 0-58.69-9.488-76.981-24.391-14.238-11.617-22.781-26.468-22.781-42.679" fill="#8b198d"/><path id="path80" d="m1163.4 482.36c-0.6-0.019-1.17-0.058-1.75-0.097-39.08-1.153-71-20.782-77.24-46.012-0.77-3.09-1.23-6.25-1.19-9.52 0.33-21.871 19.84-40.41 47.64-48.648 10.42-3.082 21.94-4.781 34.11-4.594 9.9 0.141 19.29 1.524 28.02 3.774 17-16.992 40.75-18.102 40.75-18.102-10.3 8.469-15.55 18.219-18.36 26.949 18.3 10.313 29.98 25.782 29.72 43.012-0.07 5.738-1.48 11.231-4.02 16.399-10.66 21.839-41.5 37.371-77.68 36.839" fill="#7fcc2a"/><path id="path82" d="m1183.6 687.03c38.91-0.203 73.4 12.848 95.02 33 14.61 13.641 23.42 30.489 23.51 48.848 0.16 32.812-27.3 61.211-67.03 74.672-15.37 5.215-32.5 8.262-50.68 8.34-65.29 0.312-118.33-36.332-118.54-81.821-0.13-26.07 17.11-49.308 43.92-64.699-3.94-13.23-11.49-28.012-26.4-41.019 0 0 8.42 0.507 19.88 4.097 11.82 3.711 26.87 10.711 39.36 23.871 12.78-3.218 26.53-5.218 40.96-5.289" fill="#ca1e25"/><path id="path84" d="m1776.8 268.22c-0.8-12.399 8.05-23.949 22.01-31.207 8.05-4.203 17.82-6.981 28.44-7.68 6.45-0.41 12.64 0.02 18.44 1.039 10.19-11.922 25.6-13.91 25.6-13.91-6.27 6.07-9.23 12.68-10.6 18.48 12.44 5.778 20.82 15.231 21.52 26.457 1.23 19.551-21.35 36.973-50.47 38.852-4.59 0.309-9.08 0.16-13.36-0.309-22.93-2.5-40.54-15.261-41.58-31.722" fill="#2e358b"/><path id="path86" d="m1601.1 105.25c-44.67 1.211-80.82-18.852-80.82-44.75 0-14.84 11.87-28.359 30.27-37.52-2.7-7.48-7.8-15.8-18-22.98 0 0 23.67 0.64062 40.43 15.031 8.75-2.0508 18.15-3.3907 28.03-3.6524 44.65-1.207 80.84 18.832 80.84 44.77 0.02 25.902-36.19 47.891-80.82 49.102" fill="#3ea0b4"/><path id="path88" d="m1982.2 277.87c-44.06-6.941-76.91-33.359-77.05-65.141-0.1-21.351 14.55-40.39 37.33-53.011-1-3.258-2.33-6.598-3.95-10-3.85-7.969-9.61-16.149-18.5-23.59 0 0 29.44 1.641 50.34 22.891 10.88-2.661 22.56-4.282 34.82-4.34 18.95-0.09 36.6 3.402 51.74 9.48 29.2 11.68 48.85 33 48.96 57.531 0.06 13.739-5.99 26.547-16.44 37.25-1.58-0.019-3.15-0.121-4.77-0.121-40.04 0.2-76.27 11.289-102.48 29.051" fill="#e4ea1d"/><path id="path90" d="m1755.5 1494c-2.73-8.94-7.99-18.96-18.38-27.79 0 0 24.26 1.49 41.39 19.08 8.95-2.14 18.57-3.43 28.71-3.43 15.86 0 30.66 3.07 43.26 8.29 23.65 9.8 39.46 27.33 39.46 47.37 0 17.99-12.78 33.94-32.48 44.11-3.79-0.3-7.62-0.48-11.55-0.46-11.58 0.05-22.62 1.59-32.87 4.1-19.75-20.1-47.56-21.66-47.56-21.66 10.31 8.71 16.25 18.41 19.71 27.48-34.98-6.5-60.7-28.01-60.7-53.57 0-5.99 1.5-11.71 4.12-17.12 5.04-10.47 14.43-19.61 26.89-26.4" fill="#e96e18"/><path id="path92" d="m1987.3 1713.6c-7.99-8.3-17.31-13.6-25.66-17.02-1.57-4.33-2.47-8.84-2.47-13.49 0-18.18 12.54-34.32 32.02-44.97-1.66-5.49-4.32-11.41-8.42-17.21-2.79-3.92-6.23-7.81-10.57-11.51 0 0 25.08 1.56 42.78 19.75 9.23-2.22 19.16-3.55 29.62-3.55 26.27 0 49.71 7.99 65.39 20.53 12.49 9.99 20.04 22.87 20.04 36.96 0 19.71-14.82 37.12-37.36 47.48-17.89-12.72-43.11-20.75-71.11-20.89-12.09-0.07-23.58 1.41-34.26 3.92" fill="#2e358b"/><path id="path94" d="m1170.1 1133.5c-9.51-7.73-15.21-17.64-15.21-28.44 0-6.48 2.07-12.62 5.76-18.17 10.37-15.62 33.59-26.51 60.62-26.51 8.13 0 15.86 1.03 23.05 2.77 13.75-14.14 33.24-15.34 33.24-15.34-4.18 3.54-7.32 7.33-9.68 11.13-2.39 3.81-3.99 7.6-5.06 11.19 15.11 8.25 24.88 20.81 24.88 34.93 0 22.69-25.21 41.41-57.89 44.25-10.49-10.1-27.87-16.72-47.56-16.72-4.18 0-8.24 0.34-12.15 0.91" fill="#7fcc2a"/><path id="path96" d="m1216.1 1203.3c-8.42-1.93-17.42-3.1-26.9-3.1-12.67 0-24.62 1.99-35.31 5.47-17.72-6.7-29.7-19.43-29.7-34.05 0-12.35 8.53-23.32 21.77-30.54-1.93-6.28-5.6-13.31-12.91-19.52 0 0 17.05 1.05 29.08 13.41 2.58-0.62 5.26-1.1 7.99-1.5 3.91-0.57 7.97-0.91 12.15-0.91 19.69 0 37.07 6.62 47.56 16.72 6.6 6.33 10.49 14.02 10.49 22.34 0 8.46-4.03 16.26-10.84 22.66-3.19 1.91-6.35 4.18-9.38 6.9-1.29 0.75-2.61 1.45-4 2.12" fill="#e4ea1d"/><path id="path98" d="m1153.9 1205.7c10.69-3.48 22.64-5.47 35.31-5.47 9.48 0 18.48 1.17 26.9 3.1 0.49 0.1 0.99 0.19 1.46 0.3 0.82-0.86 1.68-1.64 2.54-2.42 3.03-2.72 6.19-4.99 9.38-6.9 14.43-8.61 28.98-9.55 28.98-9.55-10.27 8.73-15.49 18.63-18.16 27.47 18.61 10.16 30.62 25.6 30.62 42.98 0 18.51-13.67 34.87-34.57 44.83 1.51-4.8 4.22-9.97 9.22-14.8 0 0-14.63 1.86-24.31 13.18-5.51-0.94-11.39-1.36-17.49-0.96-13.1 0.85-24.78 5.05-33.35 11.18-36.06-5.73-62.93-27.47-62.93-53.43 0-21.83 18.97-40.63 46.4-49.51" fill="#ca1e25"/><path id="path100" d="m1221.2 1298.4c9.68-11.32 24.31-13.18 24.31-13.18-5 4.83-7.71 10-9.22 14.8-0.31 0.93-0.62 1.86-0.84 2.73 11.8 5.49 19.75 14.48 20.41 25.13 1.21 18.56-20.23 35.09-47.91 36.9-27.61 1.78-50.97-11.85-52.17-30.41-0.6-9.78 5.06-18.96 14.58-25.75 8.57-6.13 20.25-10.33 33.35-11.18 6.1-0.4 11.98 0.02 17.49 0.96" fill="#2e358b"/><path id="path102" d="m1765.5 1563.6s27.81 1.56 47.56 21.66c10.25-2.51 21.29-4.05 32.87-4.1 3.93-0.02 7.76 0.16 11.55 0.46 46.93 3.61 83.43 30.27 83.61 62.86 0.06 11.16-4.18 21.64-11.62 30.8-3.11 2.38-6.16 5.14-8.93 8.39-9.12-1.58-18.9-2.26-29.1-1.61-26.41 1.72-49.38 11.58-63.83 25.49-43.34-5.69-76.05-31.27-76.17-62.13-0.1-20.15 13.71-38.14 35.27-50.06-0.43-1.41-0.93-2.84-1.5-4.28-3.46-9.07-9.4-18.77-19.71-27.48" fill="#8b198d"/><path id="path104" d="m1891.5 1682c10.2-0.65 19.98 0.03 29.1 1.61 2.77-3.25 5.82-6.01 8.93-8.39 14.88-11.4 31.52-13.54 31.52-13.54-9.9 9.57-14.57 20-16.7 29.17 0.63 0.3 1.21 0.66 1.86 0.98-4.94-1.04-8.13-1.26-8.13-1.26 12.35 10.61 18.54 22.6 21.76 33.28-22.54 12.17-37.15 30.74-37.25 51.75-0.02 4.72 0.69 9.33 2.07 13.78-8.14 2.39-16.87 3.99-26.05 4.59-45.94 2.97-84.81-19.68-86.78-50.57-0.8-13.14 5.2-25.63 15.84-35.91 14.45-13.91 37.42-23.77 63.83-25.49" fill="#3ea0b4"/><path id="path106" d="m1959.8 1723.9c-3.22-10.68-9.41-22.67-21.76-33.28 0 0 3.19 0.22 8.13 1.26 4.18 0.87 9.59 2.34 15.49 4.76 8.35 3.42 17.67 8.72 25.66 17.02 10.68-2.51 22.17-3.99 34.26-3.92 28 0.14 53.22 8.17 71.11 20.89 16.93 12.01 27.34 28.21 27.27 46.02-0.2 36.64-44.55 66.16-99.03 65.88-47.52-0.24-87.01-23.01-96.31-53.1-1.38-4.45-2.09-9.06-2.07-13.78 0.1-21.01 14.71-39.58 37.25-51.75" fill="#e4ea1d"/><path id="path108" d="m1719.4 523.35c-18.83 15.789-28.34 33.789-33.28 49.847 33.81 18.731 55.52 46.973 55.37 78.653-0.04 9.449-2.07 18.578-5.74 27.226-15.73 1.852-30.96 4.594-45.63 8.121-53.87-55.371-130.19-60.058-130.19-60.058 32.67 27.82 49.21 59.3 57.77 87.429-18.71 10.211-35.29 22.09-49.26 35.309-5.68-0.629-11.23-1.508-16.7-2.578-37.73-7.321-69.33-24.391-88.44-46.891-12.57-14.769-19.76-31.859-19.66-50.082 0.19-40.816 36.77-75.777 89-91.117 17.75-5.211 37.34-8.16 57.89-8.281 0.84 0 1.66-0.039 2.52-0.02 10.39 0.039 20.45 0.922 30.2 2.328 7.34 1.071 14.55 2.403 21.44 4.102 31.02-31.539 74.71-33.988 74.71-33.988" fill="#e4ea1d"/><path id="path110" d="m1679 958.11c0-20.718-14.86-39.172-37.93-51.281 3.34-10.547 9.77-22.363 22.48-32.793 0 0-29.69 1.797-50.62 22.539-10.98-2.539-22.8-4.062-35.18-4.062-17.03 0-33.09 2.773-47.19 7.597-0.02-0.039-0.02-0.078-0.04-0.097-6.62-15.45-10.25-31.739-10.25-48.614 0-34.711 15.04-66.972 40.88-94.203 2.36-2.48 4.8-4.918 7.34-7.32 13.97-13.219 30.55-25.098 49.26-35.309-8.56-28.129-25.1-59.609-57.77-87.429 0 0 76.32 4.687 130.19 60.058 14.67-3.527 29.9-6.269 45.63-8.121 14.49-1.719 29.37-2.656 44.63-2.656 20.78 0 40.97 1.68 60.33 4.789 0.72 0.09 1.44 0.211 2.15 0.328 17.67 30.801 62.14 52.563 114.27 52.32 5.02-0.039 9.96-0.308 14.85-0.757 42.52 31.148 68.51 72.699 68.51 118.3 0 12.676-2.05 25-5.86 36.895-12.71-2.109-25.99-3.262-39.68-3.34-20.61-0.098-40.24 2.363-58.5 6.563-34.73-35.43-84.16-38.653-84.16-38.653 21.07 17.793 31.68 37.91 37.15 55.86-38.5 20.418-63.42 51.578-63.6 86.839-0.05 9.454 1.7 18.664 5.02 27.464-16.32 2.17-33.2 3.34-50.48 3.34-47.08 0-91.2-8.46-129.28-23.16 17.24-11.765 27.85-27.608 27.85-45.097" fill="#3ea0b4"/><path id="path112" d="m1502.4 914.41c0.91-0.676 1.81-1.355 2.81-1.996 7.23-4.824 15.57-8.945 24.8-12.148 0.16-0.059 0.34-0.098 0.49-0.157 14.1-4.824 30.16-7.597 47.19-7.597 12.38 0 24.2 1.523 35.18 4.062 20.93-20.742 50.62-22.539 50.62-22.539-12.71 10.43-19.14 22.246-22.48 32.793 23.07 12.109 37.93 30.563 37.93 51.281 0 17.489-10.61 33.332-27.85 45.097-10.78 7.35-24.12 13.07-39.18 16.57-2.76-2.37-5.88-4.54-9.34-6.43 1.92-6.27 5.59-13.29 12.87-19.487 0 0-16.99 1.047-29 13.397-6.27-1.52-13.03-2.4-20.1-2.4-15 0-28.61 3.84-38.88 10.12-19.36-7.19-34.69-18.363-43.29-31.835-4.92-7.711-7.67-16.153-7.67-25.032 0-16.793 9.84-32.082 25.9-43.699" fill="#8b198d"/><path id="path114" d="m1586.5 1007.3c12.01-12.35 29-13.397 29-13.397-7.28 6.197-10.95 13.217-12.87 19.487 3.46 1.89 6.58 4.06 9.34 6.43 7.75 6.66 12.38 14.99 12.38 24.07 0 15.68-13.81 29.18-33.69 35.36-7.09-1.96-14.86-3.05-23.01-3.05-7.46 0-14.53 0.94-21.11 2.51-10.49-10.8-24.59-13.37-29.02-13.91-5.75-6.05-9.13-13.21-9.13-20.91 0-11.46 7.41-21.73 19.13-28.87 10.27-6.28 23.88-10.12 38.88-10.12 7.07 0 13.83 0.88 20.1 2.4" fill="#e96e18"/><path id="path116" d="m1567.6 1076.2c8.15 0 15.92 1.09 23.01 3.05 22.19 6.11 37.81 20.77 37.81 37.92 0 22.63-27.22 40.98-60.82 40.98-33.63 0-60.84-18.35-60.84-40.98 0-12.95 8.95-24.47 22.79-32.05-2.01-6.58-5.83-13.95-13.51-20.47 0 0 0.53 0.04 1.43 0.15 4.43 0.54 18.53 3.11 29.02 13.91 6.58-1.57 13.65-2.51 21.11-2.51" fill="#3ea0b4"/><path id="path118" d="m1889.5 908.73c-5.47-17.95-16.08-38.067-37.15-55.86 0 0 49.43 3.223 84.16 38.653 18.26-4.2 37.89-6.661 58.5-6.563 13.69 0.078 26.97 1.231 39.68 3.34 73.85 12.207 128.58 56.504 128.3 108.98-0.07 17.233-6.09 33.563-16.75 48.083-9.01 1.22-34.54 6.32-53.62 26.02-12.32-2.96-25.58-4.74-39.47-4.74-41.8 0-78.24 15.29-98.01 37.99-60.99-9.83-109.04-41.46-124.22-81.6-3.32-8.8-5.07-18.01-5.02-27.464 0.18-35.261 25.1-66.421 63.6-86.839" fill="#e4ea1d"/><path id="path120" d="m2053.1 1066.6c13.89 0 27.15 1.78 39.47 4.74 19.08-19.7 44.61-24.8 53.62-26.02 2.09-0.29 3.3-0.36 3.3-0.36-14.3 12.21-21.53 26.05-25.28 38.4 25.92 14.2 42.66 35.8 42.66 60.11 0 42.4-50.9 76.82-113.77 76.82-62.83 0-113.75-34.42-113.75-76.82 0-14.2 5.78-27.46 15.74-38.88 19.77-22.7 56.21-37.99 98.01-37.99" fill="#8b198d"/><path id="path122" d="m2106.1 421.5c-29.47 0-57.07 5.352-80.86 14.609-50.31-15.179-85.41-49.078-85.61-88.609-0.13-27.109 16.14-51.738 42.54-69.629 26.21-17.762 62.44-28.851 102.48-29.051 1.62 0 3.19 0.102 4.77 0.121 16.05 0.289 31.42 2.289 45.78 5.649 29.96-31.121 72.68-33.949 72.68-33.949-18.21 15.64-27.37 33.3-32.11 49.078 33.24 17.929 54.78 45.312 54.94 76.293 0.1 19.609-8.42 37.91-23.15 53.297-14.51 5.453-31.19 14.363-45.37 28.929-17.5-4.218-36.31-6.738-56.09-6.738" fill="#3ea0b4"/><path id="path124" d="m2207.2 445.21c36.82 20.117 60.57 50.641 60.57 85.019 0 59.981-72.31 108.67-161.62 108.67-9.98 0-19.77-0.636-29.24-1.808-10.12-38.621-60.23-67.82-120.53-67.52-0.27 0-0.56 0.02-0.84 0.032-7.07-12.223-10.97-25.481-10.97-39.372 0-40.218 32.5-75.289 80.72-94.121 23.79-9.257 51.39-14.609 80.86-14.609 19.78 0 38.59 2.52 56.09 6.738 14.18-14.566 30.86-23.476 45.37-28.929 19.75-7.399 35.49-8.418 35.49-8.418-20.29 17.289-30.58 36.859-35.9 54.32" fill="#ca1e25"/><path id="path126" d="m2076.9 637.09c1.21 4.57 1.97 9.23 1.99 14.019 0.18 41.95-46.48 76.743-106.85 81.993-4.89 0.449-9.83 0.718-14.85 0.757-52.13 0.243-96.6-21.519-114.27-52.32-0.22-0.367-0.41-0.758-0.63-1.129-4.8-8.769-7.58-18.191-7.62-28.07-0.15-25.981 17.7-49.141 45.41-64.488-4.06-13.172-11.89-27.911-27.3-40.864 0 0 10.27 0.602 23.69 5.102 11.68 3.898 25.72 10.719 37.56 22.75 12.93-3.16 26.87-5.102 41.5-5.238 0.28-0.012 0.57-0.032 0.84-0.032 60.3-0.3 110.41 28.899 120.53 67.52" fill="#2e358b"/></g></g></svg>
